<svg width="629" height="570" viewBox="0 0 629 570" fill="none" xmlns="http://www.w3.org/2000/svg">
<path d="M297 529C304.18 529 310 534.82 310 542V557C310 564.18 304.18 570 297 570H13C5.8203 570 0 564.18 0 557V542C0 534.82 5.8203 529 13 529H297ZM207 113C209.209 113 211 114.791 211 117V509C211 511.209 209.209 513 207 513H25C22.7909 513 21 511.209 21 509V117C21 114.791 22.7909 113 25 113H207ZM610 113C619.941 113 628 121.059 628 131V268C628 268.013 627.999 268.027 627.999 268.04L628 268.041V268.5C628 277.197 628.881 288.178 625.667 299.018C622.439 309.903 615.095 320.636 598.727 328.946L598.696 328.961L598.664 328.973C586.412 333.223 581.373 334.65 575.698 335.489C572.871 335.907 569.885 336.179 565.783 336.585C561.677 336.992 556.432 337.535 549.064 338.496C534.468 340.4 517.068 350.692 503.181 365.844C489.3 380.988 478.996 400.915 478.5 422.012C477.853 449.496 478.059 484.996 478.059 495.501C478.058 500 474.751 504.382 469.673 507.609C465.274 510.405 459.472 512.387 453.089 512.879C452.738 512.957 452.374 513 452 513H303C300.239 513 298 510.761 298 508V118C298 115.239 300.239 113 303 113H610ZM332 428C328.686 428 326 430.686 326 434V474C326 477.314 328.686 480 332 480H360C363.314 480 366 477.314 366 474V434C366 430.686 363.314 428 360 428H332ZM409 428C405.686 428 403 430.686 403 434V474C403 477.314 405.686 480 409 480H437C440.314 480 443 477.314 443 474V434C443 430.686 440.314 428 437 428H409ZM332 146C328.686 146 326 148.686 326 152V192C326 195.314 328.686 198 332 198H360C363.314 198 366 195.314 366 192V152C366 148.686 363.314 146 360 146H332ZM409 146C405.686 146 403 148.686 403 152V192C403 195.314 405.686 198 409 198H437C440.314 198 443 195.314 443 192V152C443 148.686 440.314 146 437 146H409ZM486 146C482.686 146 480 148.686 480 152V192C480 195.314 482.686 198 486 198H514C517.314 198 520 195.314 520 192V152C520 148.686 517.314 146 514 146H486ZM563 146C559.686 146 557 148.686 557 152V192C557 195.314 559.686 198 563 198H591C594.314 198 597 195.314 597 192V152C597 148.686 594.314 146 591 146H563ZM298 48C305.18 48 311 53.8203 311 61V76C311 83.1797 305.18 89 298 89H14C6.8203 89 1 83.1797 1 76V61C1 53.8203 6.8203 48 14 48H298ZM192 0C196.418 0 200 3.58172 200 8V29C200 30.6569 198.657 32 197 32H114C112.343 32 111 30.6569 111 29V8C111 3.58172 114.582 4.42926e-08 119 0H192Z" fill="#444444"/>
</svg>
