<svg width="699" height="727" viewBox="0 0 699 727" fill="none" xmlns="http://www.w3.org/2000/svg">
<rect x="53" y="131" width="246" height="530" rx="20" fill="#FF8C00"/>
<rect y="674" width="412" height="53" rx="20" fill="#A7A7A7"/>
<rect y="65" width="412" height="53" rx="20" fill="#A7A7A7"/>
<rect x="146" width="119" height="53" rx="26.5" fill="#A7A7A7"/>
<path d="M669 131.262C685.568 131.262 699 144.693 699 161.262V336.461C699 336.478 698.999 336.496 698.999 336.514L699 336.515V357.551C698.709 364.029 697.906 370.797 695.911 377.523C691.638 391.934 681.916 406.144 660.246 417.146L660.206 417.164L660.163 417.18C643.943 422.807 637.273 424.697 629.76 425.808C626.016 426.361 622.064 426.72 616.634 427.258C611.198 427.796 604.254 428.516 594.5 429.788C575.177 432.309 552.142 445.933 533.757 465.992C515.381 486.041 501.74 512.423 501.083 540.352C500.624 559.84 500.491 582.372 500.464 601.233H500.42V630.808C500.42 639.315 496.878 646.995 491.188 652.454C490.612 652.872 490.014 653.278 489.396 653.671C483.573 657.372 475.892 659.995 467.441 660.646C466.977 660.75 466.495 660.808 466 660.808H387.443C370.875 660.808 357.444 647.376 357.443 630.808V161.262C357.443 144.693 370.875 131.262 387.443 131.262H669ZM409.074 548.278C404.687 548.278 401.131 551.835 401.131 556.222V609.177C401.131 613.563 404.688 617.12 409.074 617.12H446.143C450.529 617.12 454.085 613.563 454.085 609.177V556.222C454.085 551.835 450.529 548.279 446.143 548.278H409.074ZM409.074 174.949C404.687 174.949 401.131 178.506 401.131 182.893V235.847C401.131 240.233 404.687 243.79 409.074 243.79H446.143C450.529 243.79 454.085 240.233 454.085 235.847V182.893C454.085 178.506 450.529 174.95 446.143 174.949H409.074ZM511.012 174.949C506.625 174.949 503.068 178.506 503.068 182.893V235.847C503.069 240.233 506.625 243.79 511.012 243.79H548.08C552.467 243.79 556.022 240.233 556.022 235.847V182.893C556.022 178.506 552.467 174.95 548.08 174.949H511.012ZM612.949 174.949C608.562 174.949 605.006 178.506 605.006 182.893V235.847C605.006 240.233 608.562 243.79 612.949 243.79H650.018C654.404 243.79 657.96 240.233 657.96 235.847V182.893C657.96 178.506 654.404 174.95 650.018 174.949H612.949Z" fill="#474747"/>
</svg>
