<?xml version="1.0" encoding="utf-8"?>
<!-- Generator: Adobe Illustrator 24.0.1, SVG Export Plug-In . SVG Version: 6.00 Build 0)  -->
<svg version="1.1" id="Layer_1" xmlns="http://www.w3.org/2000/svg" xmlns:xlink="http://www.w3.org/1999/xlink" x="0px" y="0px"
	 viewBox="0 0 2470.3 700" style="enable-background:new 0 0 2470.3 700;" xml:space="preserve">
<style type="text/css">
	.st0{fill-rule:evenodd;clip-rule:evenodd;fill:#020203;}
</style>
<path class="st0" d="M921.1,224.5l-0.2-128.9l-343.2,0.3l0.3,505.4l178.5,0l0.2-179.3l147-0.1l-0.2-127.3l-146.7-0.3l0-69.5
	L921.1,224.5L921.1,224.5z M406.2,95.9l-179,0.2l-0.6,505.3l330.1-0.1l0.2-148.3l-151-0.3L406.2,95.9L406.2,95.9z M21.9,601h180.3
	l0.6-505.2L22.3,95.6L21.9,601L21.9,601z M2444.6,284.6c-1.7-12-4.3-23.8-7.8-35.4c-3.2-10.7-7.2-21.2-11.9-31.3
	c-4.7-10.2-10-20-16-29.4c-17.3-26.5-40.8-48.3-68.4-63.8c-13.8-7.7-28.4-13.7-43.6-17.8c-31.1-8.4-63.2-12.1-95.4-11.2l-230.4-0.2
	v487.7L1852,393.8c14.9-3.8,29.1-10.1,42-18.6c6.4-4.2,12.5-9,18-14.3c5.6-5.3,10.6-11.1,15.1-17.4c4.5-6.2,8.4-12.9,11.7-19.8
	c3.6-7.6,6.4-15.5,8.3-23.7c2.4-9.5,4.5-21.3,5.4-33.2c1.8-23.8-0.7-47.8-7.5-70.7c-8.3-28.2-25.8-52.8-49.7-69.9
	c-11.9-8.5-25.1-15-39.1-19.2c-25.8-7.5-52.6-11.2-79.5-11L1506.4,96l-0.1,505.1l178.9-0.3l0.3-171.2l94.9,171.4l201.9-0.2
	c72.7,0,145.3-0.2,217.9-0.2c25.7-0.1,51.4-3.5,76.2-10.2c12.4-3.4,24.6-7.5,34.6-11.7c10-4.1,17.9-8.2,25.5-12.7
	c7.6-4.6,14.9-9.6,21.8-15.1c6.9-5.5,13.5-11.4,21-19.5c7.4-8.1,15.8-18.2,23.2-29c7.4-10.8,13.9-22.2,19.4-34.1
	c5.5-11.9,10.1-24.2,14-38.6c8.6-31.9,12.8-64.8,12.4-97.8C2448.1,316,2446.8,300.2,2444.6,284.6L2444.6,284.6z M1767.8,296.4
	c-6.1,15.6-20.4,26.4-37.1,28c-15.2,1.4-30.3,1.8-45.5,1.4l-0.1-100.7c14.1-0.1,28.2-0.5,42.4,1.5c4.8,0.8,9.4,2.1,14,3.7
	c9.4,3.2,17.5,9.5,22.9,17.8C1773.3,262.8,1773.5,279.7,1767.8,296.4L1767.8,296.4z M2267.1,373.3c-2.7,10.4-6.7,20.4-12,29.8
	c-6.4,11.4-15.1,21.3-25.7,29c-9.5,6.1-19.9,10.4-30.9,13c-15.8,3.5-32,5-48.2,4.6V240.7c16.1-1,32.3,0.5,48,4.4
	c10.6,2.6,20.6,7,29.7,13c9,6,16.9,13.7,23.3,22.5c6.3,8.9,11,18.7,14.2,29.1C2271.9,330.3,2272.4,352.3,2267.1,373.3L2267.1,373.3z
	 M1453.6,216.2c-11.6-22.5-26.5-43-44.3-60.9c-17.8-17.9-38.4-33-60.7-44.6s-46.6-19.8-71.4-24.2c-20-3.4-40.3-5.2-60.6-5.6
	c-34.8-0.7-69.5,4.1-102.9,14.1c-16.7,5-32.9,11.2-48.6,18.7c-63.3,30.5-109.7,87.6-126.6,155.8c-6.9,28.6-9.9,58.1-8.9,87.5
	c0.5,14.7,2,29.4,4.1,42.1c2,12.7,4.5,23.5,7.7,34c3.1,10.6,6.8,21,11.1,31.1s9.2,20.1,14.7,29.6c18.9,32.9,45.6,60.5,77.9,80.4
	c26.2,16.4,56,26.3,85.1,32.3c48.4,10,97.2,8.4,146.6-1.3c12.7-2.7,25.3-6.1,37.7-10.1c12.4-4.1,24.5-8.8,35.4-13.9
	c31-14.4,57.9-36.2,78.5-63.5c7.3-9.6,14.5-20.7,20.8-32.2c6.3-11.5,11.7-23.5,16.1-35.8c4.4-12.3,7.9-25,10.5-38.2
	c7.8-40,8.6-82.3,1.7-123.8C1473.2,262.8,1465.2,238.7,1453.6,216.2L1453.6,216.2z M1294.6,362.6c-2.1,17-6.4,34.6-16.7,49.5
	c-5.2,7.5-11.5,14.2-18.7,19.8c-7.3,5.5-15.4,9.9-24,12.9c-9,3-18.4,4.3-27.8,3.9c-18.5,1.5-36.9-3-52.6-12.9
	c-7.8-4.9-14.7-11.1-20.5-18.2c-2.4-3-4.6-6.2-6.5-9.5c-6-10.9-9.7-21.9-12.2-33.6c-2.1-9.8-3-19.9-2.8-29.9
	c0.6-17.5,3.7-35.4,11.9-51.7c7.2-13.9,17.8-25.8,30.9-34.4c9.4-5.7,19.8-9.6,30.6-11.5c21.7-3.3,43.7-0.6,63.3,10.7
	c7.1,4.1,13.6,9.1,19.4,14.9c3.6,3.7,6.8,7.7,9.7,11.9c6.1,8.9,10.5,19,12.9,29.5c1.6,6.6,3,15,3.6,23.4
	C1295.7,345.7,1295.6,354.2,1294.6,362.6L1294.6,362.6z"/>
</svg>
